<svg width="24" height="24" viewBox="0 0 24 24" fill="none" xmlns="http://www.w3.org/2000/svg">
<path d="M23 11.5C23 11.9 22.9 12.4 22.6 12.7C22 13.5 21 14.7 19.8 15.8L18.4 14.4C19.3 13.6 20.2 12.7 21.1 11.5C18.2 7.8 15.3 6 12 6C11.4 6 10.7 6.1 10.1 6.2L8.5 4.6C9.6 4.2 10.7 4 12 4C17.5 4 21 8.2 22.6 10.3C22.9 10.6 23 11.1 23 11.5ZM16.4 12.5C16.5 12.2 16.5 11.9 16.5 11.5C16.5 9 14.5 7 12 7C11.7 7 11.3 7 11 7.1L16.4 12.5ZM20.7 20.7C20.3 21.1 19.7 21.1 19.3 20.7C18.5 19.9 17.6 19 16.6 18C15.3 18.6 13.8 19 12 19C6.5 19 3 14.8 1.4 12.7C1.1 12.4 1 11.9 1 11.5C1 11.1 1.1 10.6 1.4 10.3C2.2 9.3 3.4 7.8 5.1 6.5C4.4 5.8 3.8 5.2 3.3 4.7C2.9 4.3 2.9 3.7 3.3 3.3C3.7 2.9 4.3 2.9 4.7 3.3C8.7 7.3 16.7 15.3 20.7 19.3C21.1 19.7 21.1 20.3 20.7 20.7ZM12.5 13.9C11.5 12.9 10.5 11.9 9.5 10.9C9.2 12.8 10.7 14.3 12.5 13.9ZM15 16.4C14.7 16.1 14.4 15.8 14 15.4C13.4 15.8 12.7 16 12 16C9.5 16 7.5 14 7.5 11.5C7.5 10.8 7.7 10.1 8 9.4C7.5 8.9 7 8.4 6.5 7.9C5.3 8.8 4.1 10 3 11.5C5.8 15.2 8.7 17 12 17C13 17 14 16.8 15 16.4Z" fill="#BDD5DB"/>
</svg>
