<svg width="29" height="28" viewBox="0 0 29 28" fill="none" xmlns="http://www.w3.org/2000/svg">
<path d="M20.1913 13.69C20.1913 11.4052 22.2026 10.33 22.2744 10.2628C21.4843 9.12036 20.1195 8.44835 18.6829 8.44835C17.2462 8.31395 15.7378 9.25476 15.0195 9.25476C14.2293 9.25476 13.08 8.44835 11.787 8.44835C10.1349 8.44835 8.62645 9.32196 7.8363 10.7332C6.11235 13.4884 7.40532 17.5876 9.05744 19.8052C9.84759 20.8804 10.8532 22.09 12.0744 22.09C13.2955 22.0228 13.7983 21.3508 15.2349 21.3508C16.7434 21.3508 17.1744 22.09 18.3955 22.0228C19.6885 22.0228 20.5505 20.9476 21.3406 19.8052C22.2744 18.5284 22.7054 17.3188 22.7054 17.2516C22.7054 17.2516 20.1913 16.378 20.1913 13.69ZM17.749 6.96994C18.4674 6.16354 18.8265 5.15553 18.7547 4.08032C17.8209 4.14752 16.5997 4.68513 15.8814 5.42433C15.2349 6.09634 14.7321 7.17154 14.8758 8.17955C15.9533 8.31395 17.0307 7.70915 17.749 6.96994Z" fill="white"/>
<rect x="1.12891" y="0.513428" width="26.886" height="26.886" rx="7.5" stroke="white"/>
</svg>
