<svg width="41" height="41" viewBox="0 0 41 41" fill="none" xmlns="http://www.w3.org/2000/svg">
<path d="M15.2611 29.9873C15.7189 30.3356 16.4611 30.3356 16.9189 29.9873L27.3292 22.0664C27.787 21.7181 27.787 21.1533 27.3292 20.805L27.1585 20.6751C26.7007 20.3268 25.9585 20.3268 25.5007 20.6751L15.0904 28.596C14.6326 28.9444 14.6326 29.5091 15.0904 29.8574L15.2611 29.9873Z" fill="white"/>
<path d="M16.2655 13.014C15.8077 13.3623 15.8077 13.927 16.2655 14.2754L25.5007 22.1963C25.9585 22.5446 26.7007 22.5446 27.1585 22.1963L27.3292 22.0664C27.787 21.7181 27.787 21.1533 27.3292 20.805L18.094 12.8841C17.6362 12.5358 16.8939 12.5358 16.4362 12.8841L16.2655 13.014Z" fill="white"/>
<circle cx="20.6222" cy="20.8482" r="18.896" stroke="white" stroke-width="2.15954"/>
</svg>
