<svg width="30" height="30" viewBox="0 0 30 30" fill="none" xmlns="http://www.w3.org/2000/svg">
<path d="M10.9744 21.8625C11.3181 22.1241 11.8755 22.1241 12.2192 21.8625L20.0364 15.9147C20.3802 15.6531 20.3802 15.229 20.0364 14.9675L19.9083 14.8699C19.5645 14.6084 19.0072 14.6084 18.6634 14.8699L10.8462 20.8178C10.5024 21.0794 10.5024 21.5035 10.8462 21.765L10.9744 21.8625Z" fill="white"/>
<path d="M11.7286 9.11711C11.3848 9.37867 11.3848 9.80274 11.7286 10.0643L18.6634 16.0122C19.0072 16.2737 19.5645 16.2737 19.9083 16.0122L20.0364 15.9147C20.3802 15.6531 20.3802 15.229 20.0364 14.9675L13.1016 9.01959C12.7578 8.75803 12.2005 8.75803 11.8567 9.01959L11.7286 9.11711Z" fill="white"/>
<circle cx="15" cy="14.9999" r="14.5469" stroke="white" stroke-width="0.906178"/>
</svg>
