<svg width="40" height="41" viewBox="0 0 40 41" fill="none" xmlns="http://www.w3.org/2000/svg">
<path d="M25.3366 29.9873C24.8788 30.3356 24.1365 30.3356 23.6787 29.9873L13.2684 22.0664C12.8106 21.7181 12.8106 21.1533 13.2684 20.805L13.4391 20.6751C13.8969 20.3268 14.6391 20.3268 15.0969 20.6751L25.5072 28.596C25.965 28.9444 25.965 29.5091 25.5072 29.8574L25.3366 29.9873Z" fill="white"/>
<path d="M24.3322 13.014C24.79 13.3623 24.79 13.927 24.3322 14.2754L15.0969 22.1963C14.6391 22.5446 13.8969 22.5446 13.4391 22.1963L13.2684 22.0664C12.8106 21.7181 12.8106 21.1533 13.2684 20.805L22.5037 12.8841C22.9615 12.5358 23.7037 12.5358 24.1615 12.8841L24.3322 13.014Z" fill="white"/>
<circle cx="19.9758" cy="19.9758" r="18.896" transform="matrix(-1 0 0 1 39.9512 0.872437)" stroke="white" stroke-width="2.15954"/>
</svg>
