<svg width="30" height="30" viewBox="0 0 30 30" fill="none" xmlns="http://www.w3.org/2000/svg">
<path d="M19.0256 21.8625C18.6819 22.1241 18.1245 22.1241 17.7808 21.8625L9.96356 15.9147C9.6198 15.6531 9.6198 15.229 9.96356 14.9675L10.0917 14.8699C10.4355 14.6084 10.9928 14.6084 11.3366 14.8699L19.1538 20.8178C19.4976 21.0794 19.4976 21.5035 19.1538 21.765L19.0256 21.8625Z" fill="white"/>
<path d="M18.2714 9.11711C18.6152 9.37867 18.6152 9.80274 18.2714 10.0643L11.3366 16.0122C10.9928 16.2737 10.4355 16.2737 10.0917 16.0122L9.96356 15.9147C9.6198 15.6531 9.6198 15.229 9.96356 14.9675L16.8984 9.01959C17.2422 8.75803 17.7995 8.75803 18.1433 9.01959L18.2714 9.11711Z" fill="white"/>
<circle cx="15" cy="15" r="14.5469" transform="matrix(-1 0 0 1 30 -0.00012207)" stroke="white" stroke-width="0.906178"/>
</svg>
