<svg width="28" height="28" viewBox="0 0 28 28" fill="none" xmlns="http://www.w3.org/2000/svg">
<path fill-rule="evenodd" clip-rule="evenodd" d="M24.4 19.1916C23.9157 15.9613 21.9166 13.224 19.1457 11.7198L20.8169 8.82506C20.8779 8.7194 20.8417 8.58429 20.7361 8.52329C20.6304 8.46228 20.4953 8.49848 20.4343 8.60415L18.7525 11.5172C17.3885 10.8512 15.8547 10.4772 14.2332 10.4772C12.603 10.4772 11.0614 10.8552 9.692 11.5279L8.00397 8.60415C7.94297 8.49848 7.80786 8.46228 7.7022 8.52329C7.59653 8.58429 7.56033 8.7194 7.62134 8.82506L9.29933 11.7314C6.53948 13.2381 4.54942 15.9696 4.06641 19.1916H24.4ZM9.29473 17.4488C9.93644 17.4488 10.4566 16.9286 10.4566 16.2869C10.4566 15.6452 9.93644 15.125 9.29473 15.125C8.65302 15.125 8.13281 15.6452 8.13281 16.2869C8.13281 16.9286 8.65302 17.4488 9.29473 17.4488ZM18.5901 17.4488C19.2318 17.4488 19.752 16.9286 19.752 16.2869C19.752 15.6452 19.2318 15.125 18.5901 15.125C17.9484 15.125 17.4282 15.6452 17.4282 16.2869C17.4282 16.9286 17.9484 17.4488 18.5901 17.4488Z" fill="white"/>
<rect x="0.5" y="0.513428" width="26.886" height="26.886" rx="7.5" stroke="white"/>
</svg>
