<svg width="33" height="35" viewBox="0 0 33 35" fill="none" xmlns="http://www.w3.org/2000/svg">
<g filter="url(#filter0_d_7_18988)">
<circle cx="16.5" cy="17.5" r="14.5" fill="#0F3345"/>
</g>
<path d="M9.56301 24.7112C9.21648 24.3647 9.21648 23.8028 9.56301 23.4563L22.5826 10.4367C22.9291 10.0902 23.4909 10.0902 23.8375 10.4367C24.184 10.7833 24.184 11.3451 23.8375 11.6916L10.8179 24.7112C10.4714 25.0577 9.90954 25.0577 9.56301 24.7112Z" fill="white"/>
<path d="M9.56301 24.7112C9.21648 24.3647 9.21648 23.8028 9.56301 23.4563L22.5826 10.4367C22.9291 10.0902 23.4909 10.0902 23.8375 10.4367C24.184 10.7833 24.184 11.3451 23.8375 11.6916L10.8179 24.7112C10.4714 25.0577 9.90954 25.0577 9.56301 24.7112Z" fill="#C6E2F2"/>
<path d="M9.56301 10.4367C9.90954 10.0902 10.4714 10.0902 10.8179 10.4367L23.8375 23.4563C24.184 23.8028 24.184 24.3647 23.8375 24.7112C23.4909 25.0577 22.9291 25.0577 22.5826 24.7112L9.56301 11.6916C9.21648 11.3451 9.21648 10.7833 9.56301 10.4367Z" fill="white"/>
<path d="M9.56301 10.4367C9.90954 10.0902 10.4714 10.0902 10.8179 10.4367L23.8375 23.4563C24.184 23.8028 24.184 24.3647 23.8375 24.7112C23.4909 25.0577 22.9291 25.0577 22.5826 24.7112L9.56301 11.6916C9.21648 11.3451 9.21648 10.7833 9.56301 10.4367Z" fill="#C6E2F2"/>
<defs>
<filter id="filter0_d_7_18988" x="0" y="2" width="33" height="33" filterUnits="userSpaceOnUse" color-interpolation-filters="sRGB">
<feFlood flood-opacity="0" result="BackgroundImageFix"/>
<feColorMatrix in="SourceAlpha" type="matrix" values="0 0 0 0 0 0 0 0 0 0 0 0 0 0 0 0 0 0 127 0" result="hardAlpha"/>
<feOffset dy="1"/>
<feGaussianBlur stdDeviation="1"/>
<feComposite in2="hardAlpha" operator="out"/>
<feColorMatrix type="matrix" values="0 0 0 0 0.00392157 0 0 0 0 0.0588235 0 0 0 0 0.0823529 0 0 0 0.4 0"/>
<feBlend mode="normal" in2="BackgroundImageFix" result="effect1_dropShadow_7_18988"/>
<feBlend mode="normal" in="SourceGraphic" in2="effect1_dropShadow_7_18988" result="shape"/>
</filter>
</defs>
</svg>
