<svg width="34" height="35" viewBox="0 0 34 35" fill="none" xmlns="http://www.w3.org/2000/svg">
<g filter="url(#filter0_d_7_18222)">
<circle cx="17.126" cy="16.5111" r="14.5" fill="#2E5D74"/>
</g>
<path d="M10.1892 23.7224C9.8427 23.3758 9.8427 22.814 10.1892 22.4675L23.2088 9.44792C23.5553 9.10139 24.1172 9.10139 24.4637 9.44792C24.8102 9.79445 24.8102 10.3563 24.4637 10.7028L11.4441 23.7224C11.0976 24.0689 10.5358 24.0689 10.1892 23.7224Z" fill="white"/>
<path d="M10.1892 23.7224C9.8427 23.3758 9.8427 22.814 10.1892 22.4675L23.2088 9.44792C23.5553 9.10139 24.1172 9.10139 24.4637 9.44792C24.8102 9.79445 24.8102 10.3563 24.4637 10.7028L11.4441 23.7224C11.0976 24.0689 10.5358 24.0689 10.1892 23.7224Z" fill="#C6E2F2"/>
<path d="M10.1892 9.44792C10.5358 9.10139 11.0976 9.10139 11.4441 9.44792L24.4637 22.4675C24.8102 22.814 24.8102 23.3758 24.4637 23.7224C24.1171 24.0689 23.5553 24.0689 23.2088 23.7224L10.1892 10.7028C9.8427 10.3563 9.8427 9.79445 10.1892 9.44792Z" fill="white"/>
<path d="M10.1892 9.44792C10.5358 9.10139 11.0976 9.10139 11.4441 9.44792L24.4637 22.4675C24.8102 22.814 24.8102 23.3758 24.4637 23.7224C24.1171 24.0689 23.5553 24.0689 23.2088 23.7224L10.1892 10.7028C9.8427 10.3563 9.8427 9.79445 10.1892 9.44792Z" fill="#C6E2F2"/>
<defs>
<filter id="filter0_d_7_18222" x="0.625977" y="1.01111" width="33" height="33" filterUnits="userSpaceOnUse" color-interpolation-filters="sRGB">
<feFlood flood-opacity="0" result="BackgroundImageFix"/>
<feColorMatrix in="SourceAlpha" type="matrix" values="0 0 0 0 0 0 0 0 0 0 0 0 0 0 0 0 0 0 127 0" result="hardAlpha"/>
<feOffset dy="1"/>
<feGaussianBlur stdDeviation="1"/>
<feComposite in2="hardAlpha" operator="out"/>
<feColorMatrix type="matrix" values="0 0 0 0 0.00392157 0 0 0 0 0.0588235 0 0 0 0 0.0823529 0 0 0 0.4 0"/>
<feBlend mode="normal" in2="BackgroundImageFix" result="effect1_dropShadow_7_18222"/>
<feBlend mode="normal" in="SourceGraphic" in2="effect1_dropShadow_7_18222" result="shape"/>
</filter>
</defs>
</svg>
